<?xml version="1.0" encoding="UTF-8" standalone="no"?>
<!DOCTYPE svg PUBLIC "-//W3C//DTD SVG 1.1//EN"
 "http://www.w3.org/Graphics/SVG/1.1/DTD/svg11.dtd">
<!-- Generated by graphviz version 2.38.0 (20140413.2041)
 -->
<!-- Title: plural Pages: 1 -->
<svg width="741pt" height="332pt"
 viewBox="0.00 0.00 741.49 332.00" xmlns="http://www.w3.org/2000/svg" xmlns:xlink="http://www.w3.org/1999/xlink">
<g id="graph0" class="graph" transform="scale(1 1) rotate(0) translate(4 328)">
<title>plural</title>
<polygon fill="white" stroke="none" points="-4,4 -4,-328 737.494,-328 737.494,4 -4,4"/>
<!-- f0 -->
<g id="node1" class="node"><title>f0</title>
<ellipse fill="none" stroke="black" cx="366.397" cy="-18" rx="142.975" ry="18"/>
<text text-anchor="middle" x="366.397" y="-14.3" font-family="Times New Roman,serif" font-size="14.00">+1 −1 +2 −2 +3 −3 +sg +pl −sg −pl</text>
</g>
<!-- f1 -->
<g id="node2" class="node"><title>f1</title>
<ellipse fill="none" stroke="black" cx="131.397" cy="-90" rx="36.2938" ry="18"/>
<text text-anchor="middle" x="131.397" y="-86.3" font-family="Times New Roman,serif" font-size="14.00">+1 +sg</text>
</g>
<!-- f1&#45;&gt;f0 -->
<g id="edge1" class="edge"><title>f1&#45;&gt;f0</title>
<path fill="none" stroke="black" stroke-width="0.5" d="M161.347,-79.6629C169.468,-77.1527 178.264,-74.4541 186.397,-72 228.656,-59.2482 276.608,-45.1471 312.387,-34.6976"/>
</g>
<!-- f2 -->
<g id="node3" class="node"><title>f2</title>
<ellipse fill="none" stroke="black" cx="411.397" cy="-90" rx="35.194" ry="18"/>
<text text-anchor="middle" x="411.397" y="-86.3" font-family="Times New Roman,serif" font-size="14.00">+1 +pl</text>
</g>
<!-- f2&#45;&gt;f0 -->
<g id="edge2" class="edge"><title>f2&#45;&gt;f0</title>
<path fill="none" stroke="black" stroke-width="0.5" d="M400.96,-72.7646C393.898,-61.7791 384.584,-47.2919 377.405,-36.1239"/>
</g>
<!-- f3 -->
<g id="node4" class="node"><title>f3</title>
<ellipse fill="none" stroke="black" cx="231.397" cy="-90" rx="36.2938" ry="18"/>
<text text-anchor="middle" x="231.397" y="-86.3" font-family="Times New Roman,serif" font-size="14.00">+2 +sg</text>
</g>
<!-- f3&#45;&gt;f0 -->
<g id="edge3" class="edge"><title>f3&#45;&gt;f0</title>
<path fill="none" stroke="black" stroke-width="0.5" d="M255.532,-76.4854C277.526,-65.0811 310.172,-48.1535 334.348,-35.6181"/>
</g>
<!-- f4 -->
<g id="node5" class="node"><title>f4</title>
<ellipse fill="none" stroke="black" cx="499.397" cy="-90" rx="35.194" ry="18"/>
<text text-anchor="middle" x="499.397" y="-86.3" font-family="Times New Roman,serif" font-size="14.00">+2 +pl</text>
</g>
<!-- f4&#45;&gt;f0 -->
<g id="edge4" class="edge"><title>f4&#45;&gt;f0</title>
<path fill="none" stroke="black" stroke-width="0.5" d="M475.619,-76.4854C453.951,-65.0811 421.788,-48.1535 397.971,-35.6181"/>
</g>
<!-- f5 -->
<g id="node6" class="node"><title>f5</title>
<ellipse fill="none" stroke="black" cx="322.397" cy="-90" rx="36.2938" ry="18"/>
<text text-anchor="middle" x="322.397" y="-86.3" font-family="Times New Roman,serif" font-size="14.00">+3 +sg</text>
</g>
<!-- f5&#45;&gt;f0 -->
<g id="edge5" class="edge"><title>f5&#45;&gt;f0</title>
<path fill="none" stroke="black" stroke-width="0.5" d="M332.824,-72.411C339.736,-61.4141 348.78,-47.0274 355.739,-35.9562"/>
</g>
<!-- f6 -->
<g id="node7" class="node"><title>f6</title>
<ellipse fill="none" stroke="black" cx="605.397" cy="-90" rx="35.194" ry="18"/>
<text text-anchor="middle" x="605.397" y="-86.3" font-family="Times New Roman,serif" font-size="14.00">+3 +pl</text>
</g>
<!-- f6&#45;&gt;f0 -->
<g id="edge6" class="edge"><title>f6&#45;&gt;f0</title>
<path fill="none" stroke="black" stroke-width="0.5" d="M575.61,-80.276C536.819,-68.9145 468.306,-48.8478 420.282,-34.7823"/>
</g>
<!-- f7 -->
<g id="node8" class="node"><title>f7</title>
<ellipse fill="none" stroke="black" cx="208.397" cy="-162" rx="27" ry="18"/>
<text text-anchor="middle" x="208.397" y="-158.3" font-family="Times New Roman,serif" font-size="14.00">+1</text>
</g>
<!-- f7&#45;&gt;f1 -->
<g id="edge7" class="edge"><title>f7&#45;&gt;f1</title>
<path fill="none" stroke="black" stroke-width="0.5" d="M192.815,-146.834C179.807,-135.009 161.312,-118.196 148.022,-106.114"/>
</g>
<!-- f7&#45;&gt;f2 -->
<g id="edge8" class="edge"><title>f7&#45;&gt;f2</title>
<path fill="none" stroke="black" stroke-width="0.5" d="M229.479,-150.371C234.318,-148.121 239.486,-145.865 244.397,-144 297.646,-123.777 313.45,-126.28 367.397,-108 372.981,-106.108 378.905,-103.935 384.535,-101.79"/>
</g>
<!-- f8 -->
<g id="node9" class="node"><title>f8</title>
<ellipse fill="none" stroke="black" cx="36.3968" cy="-162" rx="36.2938" ry="18"/>
<text text-anchor="middle" x="36.3968" y="-158.3" font-family="Times New Roman,serif" font-size="14.00">−3 +sg</text>
</g>
<!-- f8&#45;&gt;f1 -->
<g id="edge9" class="edge"><title>f8&#45;&gt;f1</title>
<path fill="none" stroke="black" stroke-width="0.5" d="M56.0808,-146.496C72.3852,-134.482 95.4405,-117.494 111.738,-105.485"/>
</g>
<!-- f8&#45;&gt;f3 -->
<g id="edge10" class="edge"><title>f8&#45;&gt;f3</title>
<path fill="none" stroke="black" stroke-width="0.5" d="M64.5961,-150.516C70.4739,-148.349 76.6339,-146.09 82.3968,-144 124.082,-128.884 172.472,-111.747 202.517,-101.155"/>
</g>
<!-- f9 -->
<g id="node10" class="node"><title>f9</title>
<ellipse fill="none" stroke="black" cx="127.397" cy="-162" rx="36.2938" ry="18"/>
<text text-anchor="middle" x="127.397" y="-158.3" font-family="Times New Roman,serif" font-size="14.00">−2 +sg</text>
</g>
<!-- f9&#45;&gt;f1 -->
<g id="edge11" class="edge"><title>f9&#45;&gt;f1</title>
<path fill="none" stroke="black" stroke-width="0.5" d="M128.386,-143.697C129.006,-132.846 129.802,-118.917 130.419,-108.104"/>
</g>
<!-- f9&#45;&gt;f5 -->
<g id="edge12" class="edge"><title>f9&#45;&gt;f5</title>
<path fill="none" stroke="black" stroke-width="0.5" d="M155.437,-150.269C161.044,-148.162 166.9,-145.989 172.397,-144 218.391,-127.355 230.343,-124.479 276.397,-108 282.169,-105.935 288.332,-103.687 294.211,-101.522"/>
</g>
<!-- f10 -->
<g id="node11" class="node"><title>f10</title>
<ellipse fill="none" stroke="black" cx="450.397" cy="-162" rx="35.194" ry="18"/>
<text text-anchor="middle" x="450.397" y="-158.3" font-family="Times New Roman,serif" font-size="14.00">−3 +pl</text>
</g>
<!-- f10&#45;&gt;f2 -->
<g id="edge13" class="edge"><title>f10&#45;&gt;f2</title>
<path fill="none" stroke="black" stroke-width="0.5" d="M441.154,-144.411C434.937,-133.252 426.776,-118.604 420.573,-107.47"/>
</g>
<!-- f10&#45;&gt;f4 -->
<g id="edge14" class="edge"><title>f10&#45;&gt;f4</title>
<path fill="none" stroke="black" stroke-width="0.5" d="M461.762,-144.765C469.678,-133.456 480.191,-118.437 488.094,-107.147"/>
</g>
<!-- f11 -->
<g id="node12" class="node"><title>f11</title>
<ellipse fill="none" stroke="black" cx="610.397" cy="-162" rx="35.194" ry="18"/>
<text text-anchor="middle" x="610.397" y="-158.3" font-family="Times New Roman,serif" font-size="14.00">−2 +pl</text>
</g>
<!-- f11&#45;&gt;f2 -->
<g id="edge15" class="edge"><title>f11&#45;&gt;f2</title>
<path fill="none" stroke="black" stroke-width="0.5" d="M583.492,-150.335C577.865,-148.181 571.953,-145.973 566.397,-144 517.523,-126.648 504.271,-125.352 455.397,-108 449.84,-106.027 443.929,-103.819 438.302,-101.665"/>
</g>
<!-- f11&#45;&gt;f6 -->
<g id="edge16" class="edge"><title>f11&#45;&gt;f6</title>
<path fill="none" stroke="black" stroke-width="0.5" d="M609.161,-143.697C608.386,-132.846 607.391,-118.917 606.619,-108.104"/>
</g>
<!-- f12 -->
<g id="node13" class="node"><title>f12</title>
<ellipse fill="none" stroke="black" cx="370.397" cy="-162" rx="27" ry="18"/>
<text text-anchor="middle" x="370.397" y="-158.3" font-family="Times New Roman,serif" font-size="14.00">+2</text>
</g>
<!-- f12&#45;&gt;f3 -->
<g id="edge17" class="edge"><title>f12&#45;&gt;f3</title>
<path fill="none" stroke="black" stroke-width="0.5" d="M349.587,-150.52C324.595,-137.934 282.72,-116.846 256.108,-103.445"/>
</g>
<!-- f12&#45;&gt;f4 -->
<g id="edge18" class="edge"><title>f12&#45;&gt;f4</title>
<path fill="none" stroke="black" stroke-width="0.5" d="M390.837,-149.908C413.998,-137.341 451.676,-116.895 475.995,-103.699"/>
</g>
<!-- f13 -->
<g id="node14" class="node"><title>f13</title>
<ellipse fill="none" stroke="black" cx="289.397" cy="-162" rx="36.2938" ry="18"/>
<text text-anchor="middle" x="289.397" y="-158.3" font-family="Times New Roman,serif" font-size="14.00">−1 +sg</text>
</g>
<!-- f13&#45;&gt;f3 -->
<g id="edge19" class="edge"><title>f13&#45;&gt;f3</title>
<path fill="none" stroke="black" stroke-width="0.5" d="M276.236,-145.116C266.744,-133.66 253.986,-118.263 244.506,-106.821"/>
</g>
<!-- f13&#45;&gt;f5 -->
<g id="edge20" class="edge"><title>f13&#45;&gt;f5</title>
<path fill="none" stroke="black" stroke-width="0.5" d="M297.217,-144.411C302.402,-133.414 309.184,-119.027 314.403,-107.956"/>
</g>
<!-- f14 -->
<g id="node15" class="node"><title>f14</title>
<ellipse fill="none" stroke="black" cx="698.397" cy="-162" rx="35.194" ry="18"/>
<text text-anchor="middle" x="698.397" y="-158.3" font-family="Times New Roman,serif" font-size="14.00">−1 +pl</text>
</g>
<!-- f14&#45;&gt;f4 -->
<g id="edge21" class="edge"><title>f14&#45;&gt;f4</title>
<path fill="none" stroke="black" stroke-width="0.5" d="M671.467,-150.403C665.842,-148.244 659.937,-146.017 654.397,-144 610.569,-128.047 559.284,-110.783 528.083,-100.434"/>
</g>
<!-- f14&#45;&gt;f6 -->
<g id="edge22" class="edge"><title>f14&#45;&gt;f6</title>
<path fill="none" stroke="black" stroke-width="0.5" d="M679.127,-146.496C663.06,-134.402 640.295,-117.267 624.324,-105.246"/>
</g>
<!-- f15 -->
<g id="node16" class="node"><title>f15</title>
<ellipse fill="none" stroke="black" cx="530.397" cy="-162" rx="27" ry="18"/>
<text text-anchor="middle" x="530.397" y="-158.3" font-family="Times New Roman,serif" font-size="14.00">+3</text>
</g>
<!-- f15&#45;&gt;f5 -->
<g id="edge23" class="edge"><title>f15&#45;&gt;f5</title>
<path fill="none" stroke="black" stroke-width="0.5" d="M509.327,-150.34C504.486,-148.092 499.315,-145.844 494.397,-144 439.462,-123.404 423.111,-126.383 367.397,-108 361.845,-106.168 355.965,-104.067 350.351,-101.981"/>
</g>
<!-- f15&#45;&gt;f6 -->
<g id="edge24" class="edge"><title>f15&#45;&gt;f6</title>
<path fill="none" stroke="black" stroke-width="0.5" d="M545.574,-146.834C558.244,-135.009 576.259,-118.196 589.204,-106.114"/>
</g>
<!-- f16 -->
<g id="node17" class="node"><title>f16</title>
<ellipse fill="none" stroke="black" cx="185.397" cy="-234" rx="27" ry="18"/>
<text text-anchor="middle" x="185.397" y="-230.3" font-family="Times New Roman,serif" font-size="14.00">+sg</text>
</g>
<!-- f16&#45;&gt;f8 -->
<g id="edge25" class="edge"><title>f16&#45;&gt;f8</title>
<path fill="none" stroke="black" stroke-width="0.5" d="M164.049,-222.971C137.092,-210.306 90.7622,-188.541 61.9512,-175.005"/>
</g>
<!-- f16&#45;&gt;f9 -->
<g id="edge26" class="edge"><title>f16&#45;&gt;f9</title>
<path fill="none" stroke="black" stroke-width="0.5" d="M172.812,-217.811C163.35,-206.391 150.411,-190.776 140.765,-179.134"/>
</g>
<!-- f16&#45;&gt;f13 -->
<g id="edge27" class="edge"><title>f16&#45;&gt;f13</title>
<path fill="none" stroke="black" stroke-width="0.5" d="M203.99,-220.485C222.102,-208.295 249.591,-189.792 268.462,-177.091"/>
</g>
<!-- f17 -->
<g id="node18" class="node"><title>f17</title>
<ellipse fill="none" stroke="black" cx="530.397" cy="-234" rx="27" ry="18"/>
<text text-anchor="middle" x="530.397" y="-230.3" font-family="Times New Roman,serif" font-size="14.00">+pl</text>
</g>
<!-- f17&#45;&gt;f10 -->
<g id="edge28" class="edge"><title>f17&#45;&gt;f10</title>
<path fill="none" stroke="black" stroke-width="0.5" d="M514.591,-219.17C501.022,-207.297 481.501,-190.216 467.554,-178.013"/>
</g>
<!-- f17&#45;&gt;f11 -->
<g id="edge29" class="edge"><title>f17&#45;&gt;f11</title>
<path fill="none" stroke="black" stroke-width="0.5" d="M546.202,-219.17C559.772,-207.297 579.292,-190.216 593.239,-178.013"/>
</g>
<!-- f17&#45;&gt;f14 -->
<g id="edge30" class="edge"><title>f17&#45;&gt;f14</title>
<path fill="none" stroke="black" stroke-width="0.5" d="M552.706,-223.705C583.589,-210.837 639.266,-187.638 672.122,-173.948"/>
</g>
<!-- f18 -->
<g id="node19" class="node"><title>f18</title>
<ellipse fill="none" stroke="black" cx="270.397" cy="-234" rx="27" ry="18"/>
<text text-anchor="middle" x="270.397" y="-230.3" font-family="Times New Roman,serif" font-size="14.00">−3</text>
</g>
<!-- f18&#45;&gt;f7 -->
<g id="edge31" class="edge"><title>f18&#45;&gt;f7</title>
<path fill="none" stroke="black" stroke-width="0.5" d="M257.248,-218.155C246.727,-206.276 232.043,-189.697 221.526,-177.824"/>
</g>
<!-- f18&#45;&gt;f8 -->
<g id="edge32" class="edge"><title>f18&#45;&gt;f8</title>
<path fill="none" stroke="black" stroke-width="0.5" d="M247.093,-224.486C239.004,-221.644 229.843,-218.554 221.397,-216 160.313,-197.526 143.292,-199.085 82.3968,-180 76.5472,-178.167 70.3494,-176.02 64.4619,-173.881"/>
</g>
<!-- f18&#45;&gt;f10 -->
<g id="edge33" class="edge"><title>f18&#45;&gt;f10</title>
<path fill="none" stroke="black" stroke-width="0.5" d="M291.566,-222.592C296.401,-220.33 301.545,-218.013 306.397,-216 350.026,-197.894 362.14,-196.513 406.397,-180 411.768,-177.996 417.491,-175.817 422.973,-173.708"/>
</g>
<!-- f18&#45;&gt;f12 -->
<g id="edge34" class="edge"><title>f18&#45;&gt;f12</title>
<path fill="none" stroke="black" stroke-width="0.5" d="M288.275,-220.485C306.364,-207.823 334.182,-188.351 352.336,-175.642"/>
</g>
<!-- f19 -->
<g id="node20" class="node"><title>f19</title>
<ellipse fill="none" stroke="black" cx="342.397" cy="-234" rx="27" ry="18"/>
<text text-anchor="middle" x="342.397" y="-230.3" font-family="Times New Roman,serif" font-size="14.00">−2</text>
</g>
<!-- f19&#45;&gt;f7 -->
<g id="edge35" class="edge"><title>f19&#45;&gt;f7</title>
<path fill="none" stroke="black" stroke-width="0.5" d="M321.753,-222.216C296.645,-209.1 254.502,-187.085 229.285,-173.912"/>
</g>
<!-- f19&#45;&gt;f9 -->
<g id="edge36" class="edge"><title>f19&#45;&gt;f9</title>
<path fill="none" stroke="black" stroke-width="0.5" d="M321.345,-222.29C316.504,-220.044 311.328,-217.81 306.397,-216 248.507,-194.749 231.09,-198.92 172.397,-180 166.674,-178.155 160.61,-176.003 154.851,-173.863"/>
</g>
<!-- f19&#45;&gt;f11 -->
<g id="edge37" class="edge"><title>f19&#45;&gt;f11</title>
<path fill="none" stroke="black" stroke-width="0.5" d="M362.973,-222.197C367.927,-219.902 373.271,-217.671 378.397,-216 459.28,-189.627 484.612,-203.425 566.397,-180 572.223,-178.331 578.357,-176.207 584.134,-174.03"/>
</g>
<!-- f19&#45;&gt;f15 -->
<g id="edge38" class="edge"><title>f19&#45;&gt;f15</title>
<path fill="none" stroke="black" stroke-width="0.5" d="M363.501,-222.43C368.34,-220.177 373.501,-217.905 378.397,-216 428.704,-196.427 444.089,-199.573 494.397,-180 499.292,-178.095 504.454,-175.823 509.292,-173.57"/>
</g>
<!-- f20 -->
<g id="node21" class="node"><title>f20</title>
<ellipse fill="none" stroke="black" cx="414.397" cy="-234" rx="27" ry="18"/>
<text text-anchor="middle" x="414.397" y="-230.3" font-family="Times New Roman,serif" font-size="14.00">−1</text>
</g>
<!-- f20&#45;&gt;f12 -->
<g id="edge39" class="edge"><title>f20&#45;&gt;f12</title>
<path fill="none" stroke="black" stroke-width="0.5" d="M404.412,-217.116C397.212,-205.66 387.533,-190.263 380.342,-178.821"/>
</g>
<!-- f20&#45;&gt;f13 -->
<g id="edge40" class="edge"><title>f20&#45;&gt;f13</title>
<path fill="none" stroke="black" stroke-width="0.5" d="M394.313,-221.753C372.091,-209.309 336.323,-189.279 312.837,-176.127"/>
</g>
<!-- f20&#45;&gt;f14 -->
<g id="edge41" class="edge"><title>f20&#45;&gt;f14</title>
<path fill="none" stroke="black" stroke-width="0.5" d="M440.028,-227.57C497.623,-215.334 633.869,-186.193 654.397,-180 660.042,-178.297 665.992,-176.207 671.629,-174.083"/>
</g>
<!-- f20&#45;&gt;f15 -->
<g id="edge42" class="edge"><title>f20&#45;&gt;f15</title>
<path fill="none" stroke="black" stroke-width="0.5" d="M433.813,-221.284C455.226,-208.362 489.479,-187.692 510.918,-174.755"/>
</g>
<!-- f21 -->
<g id="node22" class="node"><title>f21</title>
<ellipse fill="none" stroke="black" cx="342.397" cy="-306" rx="27" ry="18"/>
</g>
<!-- f21&#45;&gt;f16 -->
<g id="edge43" class="edge"><title>f21&#45;&gt;f16</title>
<path fill="none" stroke="black" stroke-width="0.5" d="M320.567,-295.267C290.656,-281.931 237.24,-258.115 207.294,-244.763"/>
</g>
<!-- f21&#45;&gt;f17 -->
<g id="edge44" class="edge"><title>f21&#45;&gt;f17</title>
<path fill="none" stroke="black" stroke-width="0.5" d="M365.449,-296.417C401.63,-282.945 471.335,-256.991 507.45,-243.544"/>
</g>
<!-- f21&#45;&gt;f18 -->
<g id="edge45" class="edge"><title>f21&#45;&gt;f18</title>
<path fill="none" stroke="black" stroke-width="0.5" d="M327.826,-290.834C315.417,-278.77 297.666,-261.512 285.192,-249.385"/>
</g>
<!-- f21&#45;&gt;f19 -->
<g id="edge46" class="edge"><title>f21&#45;&gt;f19</title>
<path fill="none" stroke="black" stroke-width="0.5" d="M342.397,-287.697C342.397,-276.846 342.397,-262.917 342.397,-252.104"/>
</g>
<!-- f21&#45;&gt;f20 -->
<g id="edge47" class="edge"><title>f21&#45;&gt;f20</title>
<path fill="none" stroke="black" stroke-width="0.5" d="M356.967,-290.834C369.377,-278.77 387.127,-261.512 399.601,-249.385"/>
</g>
</g>
</svg>
